<?xml version="1.0" standalone="no"?>
<!DOCTYPE svg PUBLIC "-//W3C//DTD SVG 20010904//EN"
 "http://www.w3.org/TR/2001/REC-SVG-20010904/DTD/svg10.dtd">
<svg version="1.0" xmlns="http://www.w3.org/2000/svg"
 width="256.000000pt" height="256.000000pt" viewBox="0 0 256.000000 256.000000"
 preserveAspectRatio="xMidYMid meet">

<g transform="translate(0.000000,256.000000) scale(0.100000,-0.100000)"
fill="#000000" stroke="none">
<path d="M875 1951 c-22 -10 -52 -31 -67 -47 -59 -63 -58 -56 -58 -626 0 -488
2 -526 19 -563 10 -22 31 -52 47 -67 64 -60 35 -58 841 -58 692 0 740 2 778
19 51 23 101 79 114 128 16 55 15 1033 0 1084 -16 52 -64 108 -113 130 -39 18
-83 19 -781 19 -699 0 -742 -1 -780 -19z m1293 -284 c-97 -51 -253 -130 -346
-176 l-170 -84 -300 151 c-165 84 -320 163 -344 177 l-43 25 690 0 690 -1
-177 -92z m-855 -264 c185 -95 338 -173 341 -173 3 0 159 79 346 175 188 96
343 175 346 175 2 0 4 -175 4 -390 l0 -390 -695 0 -695 0 0 391 c0 215 4 389
8 387 5 -1 160 -81 345 -175z"/>
<path d="M275 1798 c-50 -27 -73 -109 -42 -148 34 -43 58 -50 179 -50 l118 0
0 89 c0 49 3 96 6 105 5 14 -9 16 -117 16 -71 0 -133 -5 -144 -12z"/>
<path d="M154 1362 c-46 -36 -57 -93 -27 -139 30 -45 67 -53 243 -53 l160 0 0
105 0 105 -177 0 c-154 0 -181 -3 -199 -18z"/>
<path d="M58 944 c-65 -35 -73 -121 -17 -168 l31 -26 235 0 c210 0 234 2 229
16 -3 9 -6 56 -6 105 l0 89 -222 0 c-178 -1 -229 -4 -250 -16z"/>
</g>
</svg>
